# xmcd
#
# Track frame offsets: 
#        150
#        12745
#        32634
#        44351
#        61588
#        76681
#        95994
#        110367
#        123500
#        134183
#        146040
#
# Disc length: 2204 seconds
#
# Revision: 0
# Processed by: cddbd v1.5.1PL2 Copyright (c) Steve Scherf et al.
# Submitted via: ExactAudioCopy v0.90b4
#
DISCID=9c089a0b
DTITLE=Cody - first experiences
DYEAR=2005
DGENRE=New Country
TTITLE0=Be my baby tonight
TTITLE1=Work in progress
TTITLE2=Little bitty
TTITLE3=livin' on love
TTITLE4=Tennessee river run
TTITLE5=Whiykey lullaby
TTITLE6=Honky tonk world
TTITLE7=Tequila sunrise
TTITLE8=Louisiana saturday night
TTITLE9=Her man
TTITLE10=Who's cheatin'
EXTD=
EXTT0=
EXTT1=
EXTT2=
EXTT3=
EXTT4=
EXTT5=
EXTT6=
EXTT7=
EXTT8=
EXTT9=
EXTT10=
PLAYORDER=
